<?xml version="1.0" standalone="no"?>
<!DOCTYPE svg PUBLIC "-//W3C//DTD SVG 20010904//EN"
 "http://www.w3.org/TR/2001/REC-SVG-20010904/DTD/svg10.dtd">
<svg version="1.0" xmlns="http://www.w3.org/2000/svg"
 width="800.000000pt" height="800.000000pt" viewBox="0 0 800.000000 800.000000"
 preserveAspectRatio="xMidYMid meet">
<metadata>
Created by potrace 1.16, written by Peter Selinger 2001-2019
</metadata>
<g transform="translate(0.000000,800.000000) scale(0.100000,-0.100000)"
fill="#000000" stroke="none">
<path d="M4280 4683 c-264 -41 -566 -143 -879 -297 -63 -31 -119 -56 -125 -56
-7 0 -18 16 -25 35 -7 20 -23 42 -36 51 -22 14 -27 14 -58 -1 -47 -22 -63 -62
-50 -120 l10 -43 -72 -46 c-83 -53 -152 -122 -160 -163 -23 -111 -71 -177
-151 -210 -53 -21 -62 -43 -45 -117 35 -154 116 -229 267 -243 60 -5 709 12
810 22 46 5 51 4 64 -20 34 -63 150 -123 290 -149 231 -44 343 7 327 150 l-4
41 66 7 c36 3 95 6 130 6 55 0 68 -4 101 -30 104 -82 331 -103 452 -42 136 69
170 238 66 326 -39 34 -157 78 -243 91 -94 15 -95 15 -95 44 0 16 8 39 19 52
50 65 65 127 50 202 -9 41 -21 61 -56 95 -37 36 -48 55 -68 125 -23 80 -23 82
-5 102 47 50 45 118 -3 162 -43 40 -95 37 -143 -8 -21 -19 -24 -20 -52 -5 -73
38 -267 57 -382 39z m290 -39 c132 -31 220 -111 263 -241 37 -114 58 -233 63
-358 4 -127 -1 -155 -27 -155 -34 0 -20 -19 19 -24 198 -29 351 -79 380 -127
8 -12 16 -45 19 -73 14 -139 -119 -230 -310 -212 -134 12 -222 54 -254 122
-20 41 -49 47 -39 9 l6 -25 -112 -1 c-62 0 -121 -2 -130 -4 -11 -2 -24 9 -36
30 -50 83 -144 116 -271 94 -42 -8 -112 -14 -155 -14 -92 0 -117 -19 -40 -31
44 -6 89 -3 213 15 114 17 198 -17 232 -94 42 -94 33 -172 -22 -200 -65 -34
-309 -3 -409 51 -57 31 -107 82 -122 126 -10 28 -38 39 -38 14 0 -16 -62 -20
-525 -37 -287 -11 -326 -10 -376 4 -78 23 -120 54 -148 110 -21 43 -22 53 -12
86 6 21 11 51 11 67 0 22 9 34 34 51 67 43 126 137 126 200 0 58 135 160 335
253 61 28 130 62 155 75 159 82 468 202 645 250 197 54 398 69 525 39z"/>
<path d="M3328 4156 c-29 -15 -48 -52 -48 -98 0 -54 8 -67 47 -74 19 -4 37
-13 40 -20 6 -16 33 -19 33 -3 0 27 -22 49 -49 49 -40 0 -56 54 -31 101 21 38
115 16 127 -30 9 -35 7 -48 -19 -98 -27 -51 -16 -69 18 -30 35 41 48 98 30
141 -22 52 -101 85 -148 62z"/>
<path d="M2860 2900 l0 -161 97 3 98 3 2 28 c2 27 1 27 -63 27 l-64 0 0 130 0
130 -35 0 -35 0 0 -160z"/>
<path d="M3131 2912 c-25 -81 -47 -153 -49 -160 -4 -10 5 -13 34 -10 35 3 39
6 47 41 9 36 10 37 58 37 48 0 48 0 59 -40 10 -38 12 -40 51 -40 29 0 40 4 36
13 -2 6 -25 78 -51 160 l-47 147 -47 0 -47 0 -44 -148z"/>
<path d="M3410 3030 l0 -30 65 0 c36 0 65 -3 65 -6 0 -3 -32 -51 -70 -106 -39
-55 -71 -109 -73 -121 -2 -21 1 -22 121 -25 l122 -3 0 31 0 30 -76 0 -75 0 75
109 c42 60 76 119 76 130 0 20 -5 21 -115 21 l-115 0 0 -30z"/>
<path d="M3670 3056 c0 -3 23 -46 50 -97 45 -83 50 -98 50 -156 l0 -63 35 0
35 0 0 71 c0 64 4 77 39 137 69 120 67 112 23 112 -39 0 -40 -1 -68 -67 l-30
-66 -28 66 c-28 66 -29 67 -67 67 -22 0 -39 -2 -39 -4z"/>
<path d="M4074 3047 c-2 -7 -3 -78 -2 -157 l3 -145 50 -3 c80 -5 135 7 161 35
33 36 31 77 -5 113 -21 21 -25 30 -15 34 21 8 37 51 30 80 -3 14 -19 32 -36
41 -37 19 -178 21 -186 2z"/>
<path d="M4360 2900 l0 -161 102 3 c102 3 102 3 102 28 1 24 -2 25 -67 28
l-67 3 0 39 0 40 60 0 60 0 0 30 0 30 -60 0 -60 0 0 30 0 30 65 0 65 0 0 30 0
30 -100 0 -100 0 0 -160z"/>
<path d="M4685 3048 c-3 -7 -22 -72 -44 -143 -22 -72 -43 -138 -47 -148 -5
-14 0 -17 33 -17 37 0 40 2 49 38 9 37 10 37 59 37 49 0 50 0 59 -37 9 -36 12
-38 49 -38 33 0 39 3 35 18 -3 9 -25 81 -49 159 l-44 143 -48 0 c-29 0 -49 -5
-52 -12z"/>
<path d="M4930 2901 l0 -161 35 0 35 0 0 65 c0 57 2 65 18 65 19 0 52 -29 52
-46 0 -5 5 -26 11 -46 9 -35 13 -38 44 -38 19 0 35 5 35 11 0 26 -32 118 -45
129 -13 10 -11 15 10 32 31 25 34 84 6 119 -17 21 -29 24 -110 27 l-91 4 0
-161z"/>
</g>
</svg>
